<svg xmlns="http://www.w3.org/2000/svg" viewBox="0 0 561.6 183.4"><title>Asset 8</title><g id="b9343eef-3f74-48ff-89d1-630a9a523fcd" data-name="Layer 2"><g id="b3baabbb-fe97-4ef0-991c-e8ec003a8ec6" data-name="Layer 1"><path d="M561.6,0V183.4H0V0ZM8.92,174.59H553.25V9.11H8.92Z" fill="#b0b0b0"/><path d="M123.59,130.15H110.31V75.85l-1-.23L85.37,111.23,60.8,74.54v55.6H47V51.71c4.26,0,8.7-.23,13.09.13,1.27.11,2.72,1.67,3.54,2.92C70.43,65.14,77.06,75.6,83.75,86c.43.66,1,1.22,2,2.33,6-9.12,12.66-17.46,17.19-26.84S114,49.92,123.59,52.3Z" fill="#b0b0b0"/><path d="M509.52,84.37v12.2H470.33v21h44V130H456.9V52H514V63.71c-1.68.1-3.42.3-5.17.3-11.16,0-22.32.17-33.48-.06-4-.09-5.88.81-5.42,5.18.52,4.89-1.17,11.42,1.4,14.27,2.23,2.47,9.06.9,13.85.95C493.15,84.43,501.11,84.37,509.52,84.37Z" fill="#b0b0b0"/><path d="M159.59,130.44c5.19-11.83,10-22.68,14.72-33.55,6-13.73,12-27.44,17.8-41.26,1.35-3.24,3.24-3.83,6.53-4.47,9-1.76,10.59,4.79,13.09,10.51q11.9,27.15,23.69,54.35c1.94,4.48,3.59,9.07,5.69,14.39-4.64,0-8.57.15-12.48-.1-1-.06-2.18-1.2-2.88-2.15a9.82,9.82,0,0,1-1.11-3.22c-3.58-13-4.73-13.91-18-13.91-7.16,0-14.33-.16-21.48.13a6.1,6.1,0,0,0-4.31,2.82,68.11,68.11,0,0,0-4.69,11.38c-1.22,3.88-3.24,5.74-7.49,5.15C166.06,130.14,163.37,130.44,159.59,130.44Zm40.68-62.26c-4.64,10.74-8.78,20.32-13.13,30.37h26.55C209.26,88.53,205.05,79,200.27,68.18Z" fill="#b0b0b0"/><path d="M324.48,52V64.55H300V130H285.83V64.88h-24.1V52Z" fill="#b0b0b0"/><path d="M419.46,52V64.52H394.82v65.63H380.93V65h-24V52Z" fill="#b0b0b0"/></g></g></svg>